<svg width="24" height="30" viewBox="0 0 24 30" fill="none" xmlns="http://www.w3.org/2000/svg">
<path d="M1.33337 28V4.00004C1.33337 3.79305 1.38157 3.5889 1.47414 3.40376C1.56671 3.21862 1.70111 3.05757 1.86671 2.93337C3.25148 1.8948 4.93575 1.33337 6.66671 1.33337C10.6667 1.33337 13.3334 4.00004 16.444 4.00004C18.2218 4.00004 19.5849 3.64449 20.5334 2.93337C20.7315 2.7848 20.967 2.69433 21.2136 2.67209C21.4602 2.64986 21.7082 2.69673 21.9297 2.80747C22.1511 2.91821 22.3374 3.08843 22.4676 3.29907C22.5978 3.5097 22.6667 3.75242 22.6667 4.00004V17.3334C22.6667 17.5404 22.6185 17.7445 22.5259 17.9297C22.4334 18.1148 22.299 18.2758 22.1334 18.4C20.7486 19.4386 19.0643 20 17.3334 20C13.3334 20 10.6667 17.3334 6.66671 17.3334C4.69886 17.3334 2.80007 18.0588 1.33337 19.3707" stroke="#FDC700" stroke-width="2.66667" stroke-linecap="round" stroke-linejoin="round"/>
</svg>
