<svg width="30" height="29" viewBox="0 0 30 29" fill="none" xmlns="http://www.w3.org/2000/svg">
<path d="M14.0358 1.72657C14.0942 1.60851 14.1845 1.50914 14.2964 1.43967C14.4083 1.37019 14.5374 1.33337 14.6691 1.33337C14.8008 1.33337 14.9299 1.37019 15.0418 1.43967C15.1537 1.50914 15.244 1.60851 15.3024 1.72657L18.3824 7.96523C18.5853 8.37586 18.8849 8.73111 19.2553 9.0005C19.6257 9.2699 20.0559 9.44538 20.5091 9.5119L27.3971 10.5199C27.5276 10.5388 27.6502 10.5939 27.7511 10.6788C27.8519 10.7638 27.927 10.8753 27.9678 11.0007C28.0086 11.1261 28.0135 11.2604 27.9819 11.3885C27.9503 11.5165 27.8835 11.6332 27.7891 11.7252L22.8078 16.5759C22.4793 16.896 22.2335 17.2912 22.0916 17.7274C21.9496 18.1636 21.9159 18.6278 21.9931 19.0799L23.1691 25.9332C23.1921 26.0637 23.1781 26.198 23.1284 26.3208C23.0788 26.4436 22.9957 26.55 22.8885 26.6279C22.7813 26.7057 22.6544 26.7519 22.5223 26.7611C22.3901 26.7703 22.258 26.7422 22.1411 26.6799L15.9838 23.4426C15.5781 23.2295 15.1267 23.1182 14.6684 23.1182C14.2102 23.1182 13.7588 23.2295 13.3531 23.4426L7.19711 26.6799C7.08021 26.7418 6.9483 26.7696 6.81637 26.7602C6.68445 26.7509 6.5578 26.7046 6.45083 26.6269C6.34387 26.5491 6.26088 26.4428 6.21131 26.3202C6.16175 26.1976 6.14758 26.0635 6.17044 25.9332L7.34511 19.0812C7.4227 18.6289 7.38908 18.1644 7.24716 17.728C7.10523 17.2915 6.85925 16.8961 6.53044 16.5759L1.54911 11.7266C1.4539 11.6346 1.38643 11.5178 1.35439 11.3893C1.32235 11.2609 1.32702 11.1261 1.36788 11.0002C1.40873 10.8743 1.48413 10.7624 1.58548 10.6772C1.68682 10.5921 1.81004 10.5371 1.94111 10.5186L8.82777 9.5119C9.28145 9.4459 9.71229 9.27064 10.0832 9.00122C10.4541 8.73179 10.754 8.37626 10.9571 7.96523L14.0358 1.72657Z" stroke="#FDC700" stroke-width="2.66667" stroke-linecap="round" stroke-linejoin="round"/>
</svg>
