<svg width="80" height="80" viewBox="0 0 80 80" fill="none" xmlns="http://www.w3.org/2000/svg">
<path d="M0 39.7892C0 17.8142 17.8142 0 39.7892 0C61.7641 0 79.5783 17.8142 79.5783 39.7892C79.5783 61.7641 61.7641 79.5783 39.7892 79.5783C17.8142 79.5783 0 61.7641 0 39.7892Z" fill="url(#paint0_linear_110_60)"/>
<path d="M36.4734 44.1992V46.8949C36.4671 47.463 36.315 48.0199 36.0317 48.5122C35.7484 49.0046 35.3433 49.4159 34.8553 49.7067C33.8194 50.474 32.9767 51.4723 32.3942 52.6224C31.8117 53.7724 31.5054 55.0425 31.4998 56.3316" stroke="#020618" stroke-width="3.31576" stroke-linecap="round" stroke-linejoin="round"/>
<path d="M43.1049 44.1992V46.8949C43.1111 47.463 43.2632 48.0199 43.5466 48.5122C43.8299 49.0046 44.235 49.4159 44.723 49.7067C45.7589 50.474 46.6016 51.4723 47.1841 52.6224C47.7666 53.7724 48.0729 55.0425 48.0785 56.3316" stroke="#020618" stroke-width="3.31576" stroke-linecap="round" stroke-linejoin="round"/>
<path d="M49.7365 34.8155H52.2233C53.3225 34.8155 54.3767 34.3789 55.154 33.6016C55.9313 32.8243 56.368 31.7701 56.368 30.6708C56.368 29.5716 55.9313 28.5174 55.154 27.7401C54.3767 26.9628 53.3225 26.5261 52.2233 26.5261H49.7365" stroke="#020618" stroke-width="3.31576" stroke-linecap="round" stroke-linejoin="round"/>
<path d="M26.5261 56.3679H53.0522" stroke="#020618" stroke-width="3.31576" stroke-linecap="round" stroke-linejoin="round"/>
<path d="M29.8418 34.8156C29.8418 37.4538 30.8898 39.9839 32.7553 41.8494C34.6208 43.7149 37.1509 44.7629 39.7891 44.7629C42.4273 44.7629 44.9574 43.7149 46.8229 41.8494C48.6884 39.9839 49.7364 37.4538 49.7364 34.8156V24.8683C49.7364 24.4286 49.5617 24.0069 49.2508 23.696C48.9399 23.3851 48.5182 23.2104 48.0785 23.2104H31.4997C31.06 23.2104 30.6383 23.3851 30.3274 23.696C30.0165 24.0069 29.8418 24.4286 29.8418 24.8683V34.8156Z" stroke="#020618" stroke-width="3.31576" stroke-linecap="round" stroke-linejoin="round"/>
<path d="M29.8417 34.8155H27.3549C26.2557 34.8155 25.2014 34.3789 24.4242 33.6016C23.6469 32.8243 23.2102 31.7701 23.2102 30.6708C23.2102 29.5716 23.6469 28.5174 24.4242 27.7401C25.2014 26.9628 26.2557 26.5261 27.3549 26.5261H29.8417" stroke="#020618" stroke-width="3.31576" stroke-linecap="round" stroke-linejoin="round"/>
<defs>
<linearGradient id="paint0_linear_110_60" x1="0" y1="0" x2="79.5783" y2="79.5783" gradientUnits="userSpaceOnUse">
<stop stop-color="#FDC700"/>
<stop offset="1" stop-color="#D08700"/>
</linearGradient>
</defs>
</svg>
