<svg width="32" height="32" viewBox="0 0 32 32" fill="none" xmlns="http://www.w3.org/2000/svg">
<path d="M13.3334 19.5468V21.7148C13.3283 22.1716 13.206 22.6195 12.9781 23.0154C12.7503 23.4114 12.4245 23.7422 12.032 23.9761C11.1989 24.5932 10.5212 25.3961 10.0527 26.321C9.58421 27.2459 9.33792 28.2673 9.33337 29.3041" stroke="#FDC700" stroke-width="2.66667" stroke-linecap="round" stroke-linejoin="round"/>
<path d="M18.6666 19.5468V21.7148C18.6717 22.1716 18.794 22.6195 19.0219 23.0154C19.2497 23.4114 19.5755 23.7422 19.968 23.9761C20.8011 24.5932 21.4788 25.3961 21.9473 26.321C22.4158 27.2459 22.6621 28.2673 22.6666 29.3041" stroke="#FDC700" stroke-width="2.66667" stroke-linecap="round" stroke-linejoin="round"/>
<path d="M24 12H26C26.8841 12 27.7319 11.6489 28.357 11.0237C28.9821 10.3986 29.3333 9.55076 29.3333 8.66671C29.3333 7.78265 28.9821 6.93481 28.357 6.30968C27.7319 5.68456 26.8841 5.33337 26 5.33337H24" stroke="#FDC700" stroke-width="2.66667" stroke-linecap="round" stroke-linejoin="round"/>
<path d="M5.33337 29.3334H26.6667" stroke="#FDC700" stroke-width="2.66667" stroke-linecap="round" stroke-linejoin="round"/>
<path d="M8 12C8 14.1217 8.84286 16.1565 10.3431 17.6568C11.8434 19.1571 13.8783 20 16 20C18.1217 20 20.1566 19.1571 21.6569 17.6568C23.1571 16.1565 24 14.1217 24 12V3.99996C24 3.64634 23.8595 3.3072 23.6095 3.05715C23.3594 2.8071 23.0203 2.66663 22.6667 2.66663H9.33333C8.97971 2.66663 8.64057 2.8071 8.39052 3.05715C8.14048 3.3072 8 3.64634 8 3.99996V12Z" stroke="#FDC700" stroke-width="2.66667" stroke-linecap="round" stroke-linejoin="round"/>
<path d="M7.99996 12H5.99996C5.1159 12 4.26806 11.6489 3.64294 11.0237C3.01782 10.3986 2.66663 9.55076 2.66663 8.66671C2.66663 7.78265 3.01782 6.93481 3.64294 6.30968C4.26806 5.68456 5.1159 5.33337 5.99996 5.33337H7.99996" stroke="#FDC700" stroke-width="2.66667" stroke-linecap="round" stroke-linejoin="round"/>
</svg>
